<?xml version="1.0" encoding="utf-8"?>
<!-- Generator: Adobe Illustrator 23.0.1, SVG Export Plug-In . SVG Version: 6.00 Build 0)  -->
<svg version="1.1" id="Layer_2" xmlns="http://www.w3.org/2000/svg" xmlns:xlink="http://www.w3.org/1999/xlink" x="0px" y="0px"
	 viewBox="0 0 172.26 57.07" enable-background="new 0 0 172.26 57.07" xml:space="preserve" width="173" height="58">
<path fill="#FDC305" d="M59.62,21.74C54.2,8.75,39.26,2.61,26.27,8.04S7.14,28.4,12.57,41.4c3.57,8.55,11.25,14.12,19.79,15.4
	c-0.58-2.08-1.16-4.38-1.68-6.83c1.49,0.99,3.08,1.8,4.75,2.54c-0.01,0-0.01,0.01-0.02,0.01c0,0,0.12,2.15,0.28,4.55
	c1.77,0.03,3.55-0.13,5.32-0.48c-0.04-0.16-0.04-0.4,0.01-0.76c0.29-1.85,1.09-5.21,1.24-7.38c1.12-1.06,2.13-2.32,2.89-3.7
	c0,0.01,0,0.02,0,0.04c-0.02,0.14-0.04,0.29-0.05,0.43c-0.55,4.25-1.7,8.78-2.39,10.03c-0.24,0.44-0.54,0.85-0.83,1.15
	c1.36-0.32,2.72-0.75,4.05-1.31C58.92,49.66,65.05,34.73,59.62,21.74z M58.15,25.51c-0.43,0.43-1.34,0.72-1.49-0.58
	c-0.14-1.3-0.19-2.21-0.19-2.21s-1.92-3.41-2.64-3.45c-0.72-0.05-5.81,3.45-7.15,4.94c-1.16,1.28-1.39,1.2-1.39,3.45
	c0,1.71,0.22,8.13,0.1,13.05v0v0c0,0-2.16,0.58-8.11,2.16c-5.95,1.58-7.77,1.78-7.77,1.78l-1.01-5.81c0,0,0,0,0,0
	c-0.01,0-0.02,0-0.04-0.01c0,0,0,0,0,0c-0.01,0-0.02,0-0.03-0.01c-0.01,0-0.03,0-0.05-0.01l0,0L25.81,25.7c0,0-3.79-1.44-5.18-1.82
	c-1.39-0.38-2.26-0.67-4.03,0.62c-1.78,1.3-1.73,3.84-1.73,3.84s0.43,0.96,0.48,1.44c0.05,0.48-1.2,0.43-2.02,0.43
	s-0.91-1.44-0.29-3.12c0.62-1.68,1.92-3.69,1.92-3.69s1.2-2.26,2.06-2.88c0,0,0.14-0.34,1.25-0.24c1.1,0.1,7.25,0.43,7.25,0.43
	l0.05-2.26c6.66-0.91,13.43-1.37,20.16-1.33c-0.01,0.61-0.03,1.21-0.06,1.82c0,0,4.37-2.02,8.11-1.97c0,0,0.43-0.05,0.77,0.38
	c0.34,0.43,2.4,2.97,2.64,3.36c0.24,0.38,1.2,1.73,1.82,3.02C59.02,23.73,58.58,25.08,58.15,25.51z"/>
<path fill="#F06351" d="M56.21,19.43c0.47,0.6,0.88,1.12,0.98,1.28c0.24,0.38,1.2,1.73,1.82,3.02c0,0-0.43,1.34-0.86,1.78
	c-0.43,0.43-1.34,0.72-1.49-0.58c-0.14-1.3-0.19-2.21-0.19-2.21s-1.92-3.41-2.64-3.45c-0.72-0.05-5.81,3.45-7.15,4.94
	c-1.16,1.28-1.39,1.2-1.39,3.45c0,1.5,0.17,6.62,0.13,11.18c1.8,0.21,4.45,0.71,5.25,1.87c0,0-0.29-7.15,7.77-3.41
	c0,0,0.29-9.74,11.42-7.25C69.86,30.07,64.22,23.14,56.21,19.43z"/>
<path fill="#F06351" d="M45.74,17.11c0.15-8.48-1.4-16.46-1.4-16.46s-0.14-1.3-0.86-0.24c-0.72,1.06-1.2,3.93-1.2,3.93
	c-7.44-0.43-12.76,0.34-12.76,0.34c-0.82-2.73-2.21-3.93-2.88-3.65c-0.67,0.29-0.72,3.31-0.72,3.31l-0.33,14.1
	C32.24,17.54,39.01,17.08,45.74,17.11z"/>
<path fill="#E55645" d="M45.15,44.76c0.13-1.06,0.2-2.47,0.24-4.04c0,0-2.16,0.58-8.11,2.16c-5.95,1.58-7.77,1.78-7.77,1.78
	l1.1,4.99c0.02,0.11,0.05,0.22,0.07,0.32c1.49,0.99,3.08,1.8,4.75,2.54c4.35-2.16,6.84-4.12,6.84-4.12c0,0.02,0,0.04,0,0.06
	C43.39,47.4,44.39,46.14,45.15,44.76z"/>
<path d="M31.86,13.99c-0.05-0.09,1.02,0.68,1.41,0.92s0.61,0.42,0.61,0.59s-0.26,0.34-0.62,0.34s-0.91-0.12-0.96-0.26
	c0,0,0.6-0.02,0.94-0.02h0.29C33.51,15.55,32.12,14.52,31.86,13.99z"/>
<path d="M39.33,14.11c0,0-1.05,1.27-1.09,1.33s-0.17,0.34,0.19,0.29s1.11-0.22,1.22-0.28s0.07-0.2-0.12-0.18
	c-0.2,0.02-0.68,0.05-0.98,0.11l0.84-1.26C39.39,14.12,39.41,14,39.33,14.11z"/>
<path d="M36.2,20.19c0,0,0.81-0.35,1.09-1.01s0.04-0.91-0.44-0.98c-0.48-0.07-1.34-0.03-1.74,0.34c-0.4,0.37-0.34,0.73-0.05,0.95
	C35.34,19.73,35.9,20.1,36.2,20.19z"/>
<path fill="#F06351" d="M35.79,21.44c0,0-0.18,0.37-0.46,0.59c-0.24,0.19-0.57,0.36-1.02,0.39c-0.64,0.03-1.06-0.17-1.45-0.45
	c-0.2-0.14-0.4-0.25-0.53-0.44c-0.16-0.18-0.36-0.25-0.36-0.25s0.75,4.1,2.56,4.74c1.82,0.65,2.14-0.75,2.2-1.13
	c0.05-0.33,0-2.08-0.82-3.22C35.91,21.37,35.89,21.58,35.79,21.44z"/>
<g>
	<path d="M34.15,22.58c-0.01,0-0.01,0-0.02,0c-1.29-0.01-2.29-1.36-2.33-1.42c-0.05-0.06-0.03-0.15,0.03-0.2
		c0.06-0.05,0.15-0.03,0.2,0.03c0.01,0.01,0.96,1.29,2.1,1.3c0,0,0.01,0,0.01,0c0.58,0,1.13-0.33,1.63-0.99l0.14-0.19l0.1,0.21
		c0,0.01,0.37,0.76,0.99,0.79c0.5,0.03,1.05-0.41,1.62-1.28c0.04-0.07,0.13-0.09,0.2-0.04c0.07,0.04,0.09,0.13,0.04,0.2
		c-0.63,0.97-1.26,1.45-1.88,1.41c-0.56-0.04-0.94-0.49-1.12-0.76C35.36,22.26,34.78,22.58,34.15,22.58z"/>
</g>
<path fill="#111111" d="M41.05,29.22l-3.12,1.3l1.14-5.61l-7.47,9.72l3.12-1.3l-1.14,5.61L41.05,29.22z M33.7,33.02l4.11-5.39
	l-0.8,4l1.96-0.82l-4.11,5.39l0.8-4L33.7,33.02z"/>
<path fill="#F06351" d="M45.68,18.92c0,0-2.54,2.24-5.06,5.19c-2.52,2.95-5.29,4.87-5.29,4.87c-0.22-0.53-1.62-1.51-1.62-1.51
	s-3.13-2.14-5.18-3.82c-1.18-0.97-2.35-2.17-3.12-3.01c-0.29-0.02-1.07-0.06-2.01-0.11c4.69,6.97,11.97,8.8,11.97,8.8
	c0.86-0.14,3.27-1.86,5.07-3.26s4.75-4.52,5.94-5.89c0.6-0.69,0.94-1.42,1.14-1.97C46.4,18.59,45.68,18.92,45.68,18.92z"/>
<path fill="#F06351" d="M25.81,25.7c0,0-3.79-1.44-5.18-1.82c-1.39-0.38-2.26-0.67-4.03,0.62c-1.78,1.3-1.73,3.84-1.73,3.84
	s0.43,0.96,0.48,1.44c0.05,0.48-1.2,0.43-2.02,0.43s-0.91-1.44-0.29-3.12c0.62-1.68,1.92-3.69,1.92-3.69C9.55,26.23,0,32.75,0,32.75
	s2.93-0.29,8.16,0.24c5.23,0.53,4.94,4.65,4.94,4.65s3.5-0.96,5.61-1.1c2.11-0.14,2.26,2.11,2.26,2.11l0.53,3.84
	c0,0,0.48-0.62,2.64-2.35c1.85-1.48,3.87-1.36,4.37-1.3l0,0L25.81,25.7z"/>
<g>
	<path fill="#111111" d="M89.56,37.12c-0.66-0.85-0.99-2.08-0.99-3.69v-5.34c0-1.64,0.33-2.89,0.98-3.73
		c0.66-0.84,1.78-1.26,3.38-1.26c1.52,0,2.6,0.37,3.23,1.11c0.63,0.74,0.95,1.81,0.95,3.19v1.25h-2.94v-1.38
		c0-0.44-0.02-0.8-0.06-1.07c-0.04-0.27-0.15-0.49-0.33-0.67c-0.18-0.18-0.45-0.27-0.82-0.27c-0.55,0-0.91,0.18-1.07,0.53
		c-0.16,0.36-0.24,0.88-0.24,1.56v6.77c0,0.7,0.09,1.22,0.28,1.56c0.18,0.34,0.53,0.52,1.03,0.52c0.52,0,0.85-0.17,0.99-0.52
		c0.15-0.35,0.22-0.87,0.22-1.56v-1.45h2.94v1.23c0,1.42-0.31,2.52-0.94,3.3c-0.63,0.78-1.71,1.17-3.24,1.17
		C91.34,38.4,90.22,37.97,89.56,37.12z"/>
	<path fill="#111111" d="M101.12,23.29h3.37l2.87,14.91h-2.8l-0.55-3.28h-2.36l-0.57,3.28h-2.85L101.12,23.29z M103.71,33.04l-0.9-6
		l-0.88,6H103.71z"/>
	<path fill="#111111" d="M109.51,25.54h-2.3v-2.25h7.62v2.25h-2.26V38.2h-3.05V25.54z"/>
	<path fill="#444444" d="M120.81,23.29h5.78v1.55h-3.7v4.93h3v1.47h-3v5.47h3.74v1.49h-5.82V23.29z"/>
	<path fill="#444444" d="M128.3,23.29h1.42l4.23,9.9v-9.9h1.73V38.2h-1.33l-4.29-10.18V38.2h-1.77V23.29z"/>
	<path fill="#444444" d="M138.01,23.29h5.78v1.55h-3.7v4.93h3v1.47h-3v5.47h3.74v1.49h-5.82V23.29z"/>
	<path fill="#444444" d="M145.51,23.29h3c1.51,0,2.62,0.31,3.32,0.93c0.71,0.62,1.06,1.63,1.06,3.03c0,1.91-0.61,3.07-1.84,3.48
		l2.12,7.47h-2.01l-1.95-6.99h-1.62v6.99h-2.08V23.29z M148.38,29.71c0.9,0,1.54-0.18,1.92-0.53c0.39-0.36,0.58-1,0.58-1.93
		c0-0.61-0.07-1.09-0.2-1.44c-0.13-0.35-0.37-0.61-0.72-0.77c-0.34-0.17-0.83-0.25-1.45-0.25h-0.92v4.93H148.38z"/>
	<path fill="#444444" d="M155.68,37.1c-0.6-0.85-0.9-2.12-0.9-3.8v-4.99c0-1.15,0.12-2.1,0.36-2.84c0.24-0.74,0.65-1.31,1.23-1.71
		c0.58-0.4,1.38-0.6,2.4-0.6c1.37,0,2.36,0.35,2.97,1.05c0.61,0.7,0.91,1.8,0.91,3.29v0.55h-1.95V27.6c0-0.71-0.04-1.26-0.13-1.65
		c-0.09-0.39-0.27-0.68-0.54-0.87c-0.28-0.2-0.68-0.29-1.22-0.29c-0.58,0-1.01,0.13-1.29,0.4c-0.28,0.26-0.46,0.62-0.54,1.06
		c-0.08,0.44-0.12,1.03-0.12,1.77v5.52c0,1.14,0.14,1.96,0.41,2.46c0.28,0.5,0.81,0.75,1.59,0.75c0.77,0,1.3-0.27,1.59-0.81
		c0.29-0.54,0.43-1.4,0.43-2.59v-1.03H159v-1.47h3.77v7.38h-1.31l-0.2-1.71c-0.47,1.26-1.35,1.9-2.65,1.9
		C157.26,38.38,156.28,37.96,155.68,37.1z"/>
	<path fill="#444444" d="M167.07,32.93l-3.22-9.64h1.93l2.28,7.2l2.25-7.2h1.95l-3.2,9.64v5.26h-1.99V32.93z"/>
</g>
</svg>
