<?xml version="1.0" encoding="utf-8"?>
<!-- Generator: Adobe Illustrator 23.0.1, SVG Export Plug-In . SVG Version: 6.00 Build 0)  -->
<svg version="1.1" id="Layer_1" xmlns="http://www.w3.org/2000/svg" xmlns:xlink="http://www.w3.org/1999/xlink" x="0px" y="0px"
	 viewBox="0 0 201.99 59.48" enable-background="new 0 0 201.99 59.48" xml:space="preserve" width="202" height="59">
<path fill="#FDC305" d="M59.88,23.99c-5.45-13.05-20.45-19.21-33.5-13.76S7.18,30.69,12.63,43.74c3.59,8.58,11.3,14.19,19.88,15.46
	c-0.58-2.09-1.16-4.4-1.69-6.86c1.5,0.99,3.09,1.81,4.77,2.56c-0.01,0-0.01,0.01-0.02,0.01c0,0,0.12,2.16,0.28,4.57
	c1.77,0.03,3.56-0.13,5.35-0.48c-0.04-0.16-0.04-0.4,0.01-0.76c0.29-1.86,1.09-5.24,1.25-7.41c1.13-1.06,2.14-2.33,2.9-3.71
	c0,0.01,0,0.02,0,0.04c-0.02,0.14-0.04,0.29-0.05,0.43c-0.55,4.26-1.7,8.81-2.4,10.07c-0.24,0.44-0.55,0.86-0.83,1.15
	c1.37-0.32,2.73-0.76,4.07-1.32C59.18,52.04,65.34,37.04,59.88,23.99z M58.41,27.78c-0.43,0.43-1.35,0.72-1.49-0.58
	s-0.19-2.22-0.19-2.22s-1.93-3.42-2.65-3.47c-0.72-0.05-5.83,3.47-7.18,4.96c-1.16,1.29-1.4,1.2-1.4,3.47
	c0,1.71,0.22,8.17,0.1,13.11v0v0c0,0-2.17,0.58-8.15,2.17c-5.98,1.59-7.81,1.78-7.81,1.78l-1.01-5.83c0,0,0,0,0,0
	c-0.01,0-0.02,0-0.04-0.01c0,0,0,0,0,0c-0.01,0-0.02,0-0.03-0.01c-0.01,0-0.03,0-0.05-0.01c0,0,0,0,0,0l-2.57-13.19
	c0,0-3.81-1.45-5.2-1.83c-1.4-0.39-2.26-0.67-4.05,0.63c-1.78,1.3-1.73,3.86-1.73,3.86s0.43,0.96,0.48,1.45
	c0.05,0.48-1.2,0.43-2.02,0.43s-0.92-1.45-0.29-3.13c0.63-1.69,1.93-3.71,1.93-3.71s1.2-2.26,2.07-2.89c0,0,0.14-0.34,1.25-0.24
	c1.11,0.1,7.28,0.43,7.28,0.43l0.05-2.27c6.69-0.91,13.49-1.37,20.24-1.34c-0.01,0.61-0.03,1.22-0.06,1.83c0,0,4.39-2.02,8.14-1.98
	c0,0,0.43-0.05,0.77,0.39c0.34,0.43,2.41,2.99,2.65,3.37c0.24,0.39,1.2,1.73,1.83,3.04C59.27,26,58.84,27.35,58.41,27.78z"/>
<path fill="#F06351" d="M56.46,21.67c0.47,0.6,0.89,1.13,0.99,1.29c0.24,0.39,1.2,1.73,1.83,3.04c0,0-0.43,1.35-0.87,1.78
	s-1.35,0.72-1.49-0.58s-0.19-2.22-0.19-2.22s-1.93-3.42-2.65-3.47c-0.72-0.05-5.83,3.47-7.18,4.96c-1.16,1.29-1.4,1.2-1.4,3.47
	c0,1.5,0.17,6.65,0.13,11.23c1.81,0.21,4.47,0.71,5.27,1.88c0,0-0.29-7.18,7.81-3.42c0,0,0.29-9.78,11.47-7.28
	C70.16,32.36,64.5,25.4,56.46,21.67z"/>
<path fill="#F06351" d="M45.93,19.35c0.15-8.51-1.41-16.53-1.41-16.53s-0.14-1.3-0.87-0.24c-0.72,1.06-1.2,3.95-1.2,3.95
	C34.99,6.1,29.64,6.87,29.64,6.87c-0.82-2.75-2.22-3.95-2.89-3.66c-0.67,0.29-0.72,3.33-0.72,3.33l-0.33,14.16
	C32.38,19.77,39.18,19.31,45.93,19.35z"/>
<path fill="#E55645" d="M45.35,47.12c0.13-1.06,0.2-2.49,0.24-4.06c0,0-2.17,0.58-8.15,2.17c-5.98,1.59-7.81,1.78-7.81,1.78
	l1.11,5.01c0.02,0.11,0.05,0.22,0.07,0.33c1.5,0.99,3.09,1.81,4.77,2.56c4.37-2.16,6.87-4.13,6.87-4.13c0,0.02,0,0.04,0,0.06
	C43.58,49.77,44.59,48.5,45.35,47.12z"/>
<path d="M32,16.22c-0.05-0.09,1.03,0.68,1.41,0.92c0.39,0.24,0.61,0.42,0.61,0.59c0,0.17-0.27,0.34-0.63,0.34s-0.92-0.12-0.96-0.27
	c0,0,0.6-0.02,0.94-0.02h0.29C33.66,17.78,32.26,16.75,32,16.22z"/>
<path d="M39.5,16.33c0,0-1.05,1.28-1.09,1.34c-0.04,0.06-0.17,0.34,0.19,0.29c0.35-0.05,1.12-0.23,1.22-0.28
	c0.11-0.06,0.07-0.2-0.12-0.18c-0.21,0.02-0.68,0.05-0.99,0.11l0.84-1.27C39.56,16.34,39.58,16.22,39.5,16.33z"/>
<path d="M36.36,22.44c0,0,0.81-0.35,1.09-1.01c0.28-0.66,0.04-0.92-0.44-0.98s-1.35-0.03-1.74,0.34c-0.4,0.37-0.34,0.73-0.05,0.96
	C35.5,21.97,36.06,22.35,36.36,22.44z"/>
<path fill="#F06351" d="M35.95,23.7c0,0-0.18,0.37-0.46,0.6c-0.24,0.19-0.57,0.37-1.02,0.39c-0.64,0.03-1.06-0.17-1.46-0.45
	c-0.2-0.14-0.4-0.26-0.53-0.44c-0.16-0.18-0.36-0.25-0.36-0.25s0.75,4.12,2.58,4.77c1.83,0.65,2.15-0.75,2.21-1.14
	c0.05-0.33,0-2.09-0.82-3.24C36.07,23.63,36.05,23.83,35.95,23.7z"/>
<g>
	<path d="M34.3,24.84c-0.01,0-0.01,0-0.02,0c-1.3-0.01-2.3-1.37-2.34-1.42c-0.05-0.06-0.03-0.15,0.03-0.2
		c0.06-0.05,0.15-0.03,0.2,0.03c0.01,0.01,0.96,1.3,2.11,1.31c0,0,0.01,0,0.01,0c0.59,0,1.14-0.33,1.63-0.99l0.14-0.19l0.1,0.21
		c0,0.01,0.37,0.76,0.99,0.8c0.5,0.03,1.06-0.41,1.62-1.28c0.04-0.07,0.13-0.09,0.2-0.04c0.07,0.04,0.09,0.13,0.04,0.2
		c-0.64,0.98-1.27,1.45-1.88,1.41c-0.57-0.04-0.95-0.5-1.12-0.77C35.51,24.52,34.93,24.84,34.3,24.84z"/>
</g>
<circle fill="#FDC305" cx="36.26" cy="34.55" r="3.75"/>
<path fill="#111111" d="M41.23,31.5l-3.13,1.31l1.15-5.64l-7.5,9.76l3.13-1.31l-1.15,5.64L41.23,31.5z M33.84,35.33l4.13-5.41
	l-0.81,4.02l1.97-0.82L35,38.52l0.81-4.02L33.84,35.33z"/>
<circle fill="#111111" cx="32.44" cy="32.74" r="1.12"/>
<circle fill="#111111" cx="38.96" cy="37.13" r="0.79"/>
<circle fill="#111111" cx="39.92" cy="35.4" r="0.35"/>
<path fill="#F06351" d="M45.88,21.16c0,0-2.55,2.25-5.08,5.21s-5.31,4.89-5.31,4.89c-0.22-0.53-1.63-1.51-1.63-1.51
	s-3.14-2.15-5.2-3.84c-1.18-0.97-2.36-2.18-3.14-3.02c-0.29-0.02-1.07-0.06-2.01-0.11c4.71,7,12.02,8.84,12.02,8.84
	c0.87-0.14,3.29-1.87,5.1-3.28c1.81-1.41,4.77-4.54,5.96-5.92c0.6-0.69,0.95-1.43,1.14-1.98C46.6,20.83,45.88,21.16,45.88,21.16z"/>
<polygon fill="#FDC305" points="65.22,3.5 56.76,12.94 55.54,10.94 63.69,0 "/>
<polygon fill="#FDC305" points="62.65,17.26 68.2,13.15 67.41,9.41 62.01,14.23 "/>
<polygon fill="#FDC305" points="59.92,49.37 66.05,52.55 69.06,50.21 62.37,47.46 "/>
<polygon fill="#FDC305" points="1.95,5.98 5.02,2.61 14.31,11.61 13.09,13.89 "/>
<polygon fill="#FDC305" points="7.38,16.28 2.68,13.15 0.28,17.01 5.43,19.42 "/>
<polygon fill="#FDC305" points="13.91,52.55 9.36,55.9 12.17,59.48 16.18,55.46 "/>
<path fill="#F06351" d="M25.93,27.97c0,0-3.81-1.45-5.2-1.83c-1.4-0.39-2.26-0.67-4.05,0.63c-1.78,1.3-1.73,3.86-1.73,3.86
	s0.43,0.96,0.48,1.45c0.05,0.48-1.2,0.43-2.02,0.43s-0.92-1.45-0.29-3.13c0.63-1.69,1.93-3.71,1.93-3.71C9.59,28.5,0,35.06,0,35.06
	s2.94-0.29,8.19,0.24c5.25,0.53,4.96,4.67,4.96,4.67s3.52-0.96,5.64-1.11c2.12-0.14,2.26,2.12,2.26,2.12l0.53,3.86
	c0,0,0.48-0.63,2.65-2.36c1.86-1.49,3.89-1.36,4.39-1.3l0,0L25.93,27.97z"/>
<g>
	<path fill="#111111" d="M85.66,42.03c-0.93-1.2-1.4-2.93-1.4-5.19v-7.51c0-2.31,0.46-4.06,1.38-5.24c0.92-1.18,2.51-1.77,4.75-1.77
		c2.14,0,3.65,0.52,4.54,1.57c0.89,1.04,1.33,2.54,1.33,4.49v1.76h-4.14V28.2c0-0.62-0.03-1.12-0.09-1.5
		c-0.06-0.38-0.22-0.69-0.47-0.94c-0.25-0.25-0.63-0.38-1.15-0.38c-0.78,0-1.28,0.25-1.5,0.75c-0.22,0.5-0.34,1.23-0.34,2.2v9.53
		c0,0.98,0.13,1.72,0.39,2.2c0.26,0.48,0.74,0.72,1.45,0.72c0.72,0,1.19-0.25,1.4-0.74c0.21-0.49,0.31-1.22,0.31-2.19v-2.04h4.14
		v1.73c0,2-0.44,3.55-1.32,4.65c-0.88,1.1-2.4,1.64-4.56,1.64C88.17,43.83,86.59,43.23,85.66,42.03z"/>
	<path fill="#111111" d="M101.91,22.58h4.74l4.04,20.97h-3.93l-0.78-4.61h-3.31l-0.8,4.61h-4.01L101.91,22.58z M105.56,36.3
		l-1.27-8.44l-1.24,8.44H105.56z"/>
	<path fill="#111111" d="M113.72,25.74h-3.24v-3.16h10.72v3.16h-3.18v17.81h-4.3V25.74z"/>
	<path fill="#444444" d="M129.61,22.58h8.13v2.17h-5.2v6.94h4.22v2.07h-4.22v7.69h5.26v2.1h-8.18V22.58z"/>
	<path fill="#444444" d="M140.15,22.58h1.99l5.95,13.93V22.58h2.43v20.97h-1.86l-6.03-14.32v14.32h-2.48V22.58z"/>
	<path fill="#444444" d="M153.82,22.58h8.13v2.17h-5.2v6.94h4.22v2.07h-4.22v7.69H162v2.1h-8.18V22.58z"/>
	<path fill="#444444" d="M164.35,22.58h4.22c2.12,0,3.68,0.44,4.67,1.31c0.99,0.87,1.49,2.29,1.49,4.26c0,2.69-0.86,4.32-2.59,4.89
		l2.98,10.51h-2.82l-2.74-9.84h-2.28v9.84h-2.92V22.58z M168.39,31.62c1.26,0,2.16-0.25,2.7-0.75c0.54-0.5,0.82-1.41,0.82-2.72
		c0-0.86-0.1-1.54-0.29-2.03c-0.19-0.49-0.53-0.85-1.01-1.09c-0.48-0.23-1.17-0.35-2.04-0.35h-1.3v6.94H168.39z"/>
	<path fill="#444444" d="M178.67,42.01c-0.84-1.2-1.27-2.98-1.27-5.35v-7.02c0-1.62,0.17-2.96,0.5-4c0.34-1.04,0.91-1.85,1.74-2.41
		c0.82-0.56,1.95-0.84,3.38-0.84c1.93,0,3.33,0.49,4.18,1.47c0.85,0.98,1.28,2.53,1.28,4.63v0.78h-2.74v-0.65
		c0-1-0.06-1.77-0.18-2.32c-0.12-0.54-0.38-0.95-0.76-1.23c-0.39-0.28-0.96-0.41-1.72-0.41c-0.81,0-1.42,0.19-1.81,0.56
		c-0.4,0.37-0.65,0.87-0.76,1.49c-0.11,0.62-0.17,1.45-0.17,2.49v7.77c0,1.6,0.19,2.76,0.58,3.46c0.39,0.7,1.14,1.05,2.24,1.05
		c1.09,0,1.83-0.38,2.24-1.14c0.41-0.76,0.61-1.98,0.61-3.65v-1.45h-2.67v-2.07h5.31v10.38h-1.84l-0.29-2.41
		c-0.66,1.78-1.9,2.67-3.73,2.67C180.88,43.81,179.51,43.21,178.67,42.01z"/>
	<path fill="#444444" d="M194.69,36.15l-4.53-13.56h2.72l3.21,10.12l3.16-10.12h2.74l-4.51,13.56v7.4h-2.8V36.15z"/>
</g>
</svg>
