<svg xmlns="http://www.w3.org/2000/svg" xmlns:xlink="http://www.w3.org/1999/xlink"><symbol id="icon-fb" viewBox="0 0 10 19">
<g>
	<path d="M7.05,19H2.01v-8.84H0V5.8h1.94C1.8,3.82,2.17,2.38,3.07,1.39C3.84,0.55,4.98,0.08,6.46,0L10,0v4.21H7.22
		C7.1,4.43,7.04,4.96,7.04,5.8h2.94v4.37H7.05V19z M3.12,17.97h2.82V9.14h2.93V6.83H5.94l-0.01-0.5c-0.03-1.4,0-2.59,0.74-3.05
		l0.14-0.09h2.07V1.03h-2.4c-1.15,0.06-2.01,0.4-2.58,1.02C3.15,2.89,2.87,4.31,3.1,6.26l0.07,0.57H1.11v2.31h2.01V17.97z"/>
</g>
</symbol><symbol id="icon-insta" viewBox="0 0 16 16">
<path  d="M11.83,1.04c1.73,0,3.13,1.41,3.13,3.13v7.66c0,1.73-1.4,3.13-3.13,3.13H4.17c-1.73,0-3.13-1.41-3.13-3.13
	V4.18c0-1.73,1.4-3.13,3.13-3.13L11.83,1.04 M11.83,0H4.17C1.88,0,0,1.88,0,4.18v7.66c0,2.3,1.88,4.18,4.17,4.18h7.65
	c2.29,0,4.17-1.88,4.17-4.18V4.18C16,1.88,14.12,0,11.83,0L11.83,0z"/>
<path  d="M8,4.93c1.7,0,3.08,1.38,3.08,3.08c0,1.7-1.38,3.08-3.08,3.08c-1.7,0-3.08-1.38-3.08-3.08
	C4.92,6.31,6.3,4.93,8,4.93 M8,3.88c-2.28,0-4.13,1.85-4.13,4.13S5.72,12.13,8,12.13s4.12-1.85,4.12-4.13S10.28,3.88,8,3.88L8,3.88z
	"/>
<circle  cx="12.27" cy="3.74" r="0.93"/>
</symbol><symbol id="icon-vk" viewBox="0 0 22 12">
<g>
	<path d="M17.55,12c-0.28,0-0.86-0.06-1.52-0.48c-0.47-0.29-0.9-0.74-1.31-1.17c-0.32-0.34-0.86-0.9-1.06-0.9
		c-0.2,0.06-0.35,0.7-0.35,1.19c0,0.09,0,0.59-0.34,0.92c-0.31,0.3-0.8,0.37-0.89,0.38l-1.41,0.01c-0.71,0-3.2-0.17-5.45-2.3
		C2.52,7.1,0.21,2.2,0.11,1.99c-0.14-0.35-0.18-0.81,0.11-1.13c0.29-0.31,0.79-0.36,1-0.36l2.99-0.02l0.08,0.01
		C4.36,0.5,4.71,0.56,5,0.75c0.28,0.19,0.43,0.5,0.46,0.56C5.46,1.32,5.93,2.4,6.54,3.35C7.5,4.87,7.93,5.22,8.08,5.3
		c0.14-0.32,0.2-1.29,0.14-2.19c0-0.38-0.07-0.84-0.18-0.97c-0.08-0.1-0.31-0.19-0.57-0.22L6.93,1.39c-0.07-0.5,0.47-0.93,0.84-1.1
		C8.31,0.05,9.09,0,10.08,0l0.52,0c0.91,0.01,1.19,0.06,1.58,0.15c1.25,0.27,1.2,1.32,1.15,2.52c-0.02,0.35-0.03,0.76-0.03,1.23
		c0,0.11,0,0.24-0.01,0.36c-0.01,0.29-0.02,0.79,0.07,0.99c0.16-0.11,0.62-0.51,1.52-1.89c0.57-0.89,1.03-1.93,1.11-2.13l0,0
		c0.13-0.33,0.45-0.72,1.18-0.72L20.3,0.5c0.01,0,0.13-0.01,0.28-0.01c0.72,0,1.17,0.22,1.34,0.65c0.2,0.49,0.12,1.26-1.73,3.51
		c-0.27,0.33-0.51,0.61-0.72,0.86c-0.44,0.52-0.89,1.05-0.91,1.21c0.04,0.13,0.49,0.51,0.92,0.87c1.12,0.95,1.85,1.72,2.22,2.34
		c0.38,0.58,0.31,1.01,0.19,1.28c-0.31,0.66-1.2,0.74-1.38,0.75l-2.78,0.04C17.7,12,17.64,12,17.55,12z M13.66,8.31
		c0.66,0,1.23,0.6,1.84,1.23c0.36,0.38,0.74,0.77,1.1,1c0.53,0.34,0.96,0.32,1.03,0.31l0.08-0.01l2.79-0.04
		c0.13-0.01,0.3-0.06,0.39-0.1c-0.01-0.03-0.04-0.07-0.07-0.13c-0.33-0.55-1.02-1.26-1.97-2.07c-0.87-0.73-1.32-1.12-1.37-1.71
		c-0.05-0.61,0.36-1.1,1.18-2.06c0.21-0.24,0.44-0.52,0.71-0.84c1.14-1.39,1.44-2.01,1.51-2.25c-0.12-0.02-0.48-0.02-0.5-0.01
		l-3.2,0.02c-0.14,0-0.18,0.03-0.18,0.03C16.86,2,16.4,3.06,15.79,4.01c-1.39,2.15-2.04,2.44-2.5,2.44c-0.15,0-0.29-0.04-0.42-0.11
		c-0.74-0.43-0.71-1.4-0.68-2.1c0-0.11,0.01-0.22,0.01-0.33c0-0.49,0.02-0.92,0.04-1.29c0.06-1.28,0.01-1.29-0.28-1.35
		c-0.3-0.07-0.52-0.11-1.36-0.12l-0.51,0c-0.46,0-0.98,0.01-1.4,0.07c0.07,0.06,0.13,0.12,0.19,0.19c0.43,0.54,0.44,1.49,0.44,1.67
		c0.1,1.25,0.04,2.89-0.75,3.28c-0.14,0.07-0.29,0.1-0.44,0.1c-0.68,0-1.36-0.67-2.51-2.49c-0.66-1.03-1.14-2.15-1.16-2.2
		C4.45,1.76,4.42,1.72,4.4,1.71C4.34,1.67,4.23,1.63,4.17,1.62L1.23,1.64c-0.02,0-0.03,0-0.05,0c0.43,0.91,2.51,5.02,4.78,7.17
		c2.01,1.91,4.27,2,4.71,2l1.36,0c0.03-0.01,0.16-0.05,0.2-0.08c-0.01,0.01-0.01-0.04-0.01-0.07c0-0.2,0.01-1.98,1.16-2.31
		C13.46,8.33,13.56,8.31,13.66,8.31z"/>
</g>
</symbol></svg>
